<svg width="32" height="32" viewBox="0 0 32 32" fill="none" xmlns="http://www.w3.org/2000/svg">
<path fill-rule="evenodd" clip-rule="evenodd" d="M15.8479 0C7.09535 0 0 7.09535 0 15.8479C0 24.6005 7.09535 31.6958 15.8479 31.6958C24.6005 31.6958 31.6958 24.6005 31.6958 15.8479C31.6958 7.09535 24.6005 0 15.8479 0ZM12.363 7.44689C13.2646 7.40586 13.5527 7.39582 15.8482 7.39582H15.8455C18.1418 7.39582 18.4288 7.40586 19.3304 7.44689C20.2302 7.48809 20.8447 7.63055 21.3836 7.83957C21.94 8.05528 22.4102 8.34406 22.8803 8.81422C23.3505 9.28403 23.6393 9.7556 23.8559 10.3115C24.0637 10.8489 24.2063 11.4631 24.2486 12.363C24.2891 13.2645 24.2996 13.5526 24.2996 15.8481C24.2996 18.1436 24.2891 18.431 24.2486 19.3326C24.2063 20.2321 24.0637 20.8464 23.8559 21.384C23.6393 21.9398 23.3505 22.4113 22.8803 22.8812C22.4107 23.3513 21.9398 23.6408 21.3841 23.8567C20.8463 24.0657 20.2314 24.2082 19.3316 24.2494C18.43 24.2904 18.1428 24.3004 15.8471 24.3004C13.5518 24.3004 13.2639 24.2904 12.3623 24.2494C11.4627 24.2082 10.8483 24.0657 10.3105 23.8567C9.75495 23.6408 9.28338 23.3513 8.81375 22.8812C8.34377 22.4113 8.05498 21.9398 7.83892 21.3839C7.63008 20.8464 7.48762 20.2322 7.44624 19.3324C7.40539 18.4308 7.39517 18.1436 7.39517 15.8481C7.39517 13.5526 7.40574 13.2644 7.44606 12.3628C7.48656 11.4633 7.6292 10.8489 7.83874 10.3113C8.05533 9.7556 8.34412 9.28403 8.81428 8.81422C9.28409 8.34424 9.75566 8.05545 10.3116 7.83957C10.849 7.63055 11.4632 7.48809 12.363 7.44689Z" fill="white"/>
<path fill-rule="evenodd" clip-rule="evenodd" d="M15.0908 8.92008C15.238 8.91985 15.3964 8.91992 15.5673 8.92L15.8491 8.92008C18.1058 8.92008 18.3733 8.92818 19.2645 8.96868C20.0886 9.00637 20.5359 9.14407 20.8338 9.25976C21.2282 9.41296 21.5095 9.59609 21.8051 9.89192C22.1009 10.1878 22.2841 10.4695 22.4376 10.8639C22.5533 11.1615 22.6912 11.6088 22.7287 12.4329C22.7692 13.3239 22.778 13.5916 22.778 15.8473C22.778 18.103 22.7692 18.3706 22.7287 19.2617C22.691 20.0858 22.5533 20.533 22.4376 20.8306C22.2844 21.2251 22.1009 21.5059 21.8051 21.8016C21.5093 22.0974 21.2284 22.2805 20.8338 22.4337C20.5362 22.55 20.0886 22.6873 19.2645 22.725C18.3735 22.7655 18.1058 22.7743 15.8491 22.7743C13.5921 22.7743 13.3246 22.7655 12.4336 22.725C11.6095 22.6869 11.1622 22.5492 10.8641 22.4336C10.4697 22.2804 10.1879 22.0972 9.89211 21.8014C9.59628 21.5056 9.41315 21.2245 9.2596 20.8299C9.14391 20.5323 9.00603 20.085 8.96852 19.2609C8.92802 18.3699 8.91992 18.1023 8.91992 15.8452C8.91992 13.588 8.92802 13.3218 8.96852 12.4308C9.00621 11.6067 9.14391 11.1594 9.2596 10.8615C9.4128 10.467 9.59628 10.1853 9.89211 9.88946C10.1879 9.59362 10.4697 9.41049 10.8641 9.25694C11.1621 9.14072 11.6095 9.00337 12.4336 8.96551C13.2133 8.9303 13.5155 8.91973 15.0908 8.91797V8.92008ZM20.3602 10.3235C19.8002 10.3235 19.3459 10.7772 19.3459 11.3374C19.3459 11.8973 19.8002 12.3517 20.3602 12.3517C20.9201 12.3517 21.3745 11.8973 21.3745 11.3374C21.3745 10.7774 20.9201 10.3231 20.3602 10.3231V10.3235ZM11.5084 15.8492C11.5084 13.4522 13.4518 11.5087 15.8489 11.5086C18.246 11.5086 20.189 13.4521 20.189 15.8492C20.189 18.2463 18.2462 20.1889 15.8491 20.1889C13.4519 20.1889 11.5084 18.2463 11.5084 15.8492Z" fill="white"/>
<path d="M15.8487 13.0312C17.4046 13.0312 18.6661 14.2926 18.6661 15.8487C18.6661 17.4046 17.4046 18.6661 15.8487 18.6661C14.2926 18.6661 13.0312 17.4046 13.0312 15.8487C13.0312 14.2926 14.2926 13.0312 15.8487 13.0312V13.0312Z" fill="white"/>
</svg>
