<svg width="24" height="24" viewBox="0 0 24 24" fill="none" xmlns="http://www.w3.org/2000/svg">
<path d="M17 8.25V10.75M17 10.75V13.25M17 10.75H19.5M17 10.75H14.5M12.625 7.3125C12.625 8.8658 11.3658 10.125 9.8125 10.125C8.2592 10.125 7 8.8658 7 7.3125C7 5.7592 8.2592 4.5 9.8125 4.5C11.3658 4.5 12.625 5.7592 12.625 7.3125ZM4.50077 18.0286C4.50026 17.9983 4.5 17.9679 4.5 17.9375C4.5 15.0035 6.87849 12.625 9.8125 12.625C12.7465 12.625 15.125 15.0035 15.125 17.9375V17.9396C15.125 17.9693 15.1247 17.999 15.1242 18.0286C13.5728 18.9627 11.7554 19.5 9.8125 19.5C7.8696 19.5 6.0522 18.9627 4.50077 18.0286Z" stroke="#191414" stroke-linecap="round" stroke-linejoin="round"/>
</svg>
