<svg width="11" height="11" viewBox="0 0 11 11" fill="none" xmlns="http://www.w3.org/2000/svg">
<path d="M5.38045 9.16577C5.29141 9.07428 5.14444 9.07425 5.05537 9.16571L4.1023 10.1443C3.97856 10.2714 3.76344 10.2137 3.71989 10.0418L3.38475 8.71847C3.3534 8.59469 3.22611 8.52116 3.10322 8.55585L1.78776 8.92719C1.61704 8.97538 1.45956 8.81779 1.50786 8.6471L1.87987 7.33268C1.91465 7.2098 1.84117 7.08244 1.71738 7.05103L0.392986 6.71505C0.221078 6.67143 0.16346 6.45628 0.290565 6.3326L1.26901 5.38045C1.36051 5.29141 1.36054 5.14444 1.26908 5.05537L0.290501 4.10235C0.163435 3.9786 0.221158 3.76345 0.393104 3.71993L1.71726 3.38476C1.8411 3.35341 1.91465 3.22603 1.87988 3.10311L1.50785 1.78787C1.45956 1.61714 1.61714 1.45956 1.78787 1.50785L3.10311 1.87988C3.22603 1.91465 3.35341 1.8411 3.38476 1.71726L3.71993 0.393104C3.76345 0.221158 3.9786 0.163434 4.10235 0.290501L5.05537 1.26908C5.14444 1.36054 5.29141 1.36051 5.38045 1.26901L6.3326 0.290565C6.45628 0.16346 6.67144 0.221078 6.71505 0.392987L7.05103 1.71738C7.08244 1.84117 7.2098 1.91465 7.33268 1.87987L8.6471 1.50786C8.81779 1.45956 8.97538 1.61704 8.92719 1.78776L8.55585 3.10322C8.52116 3.22611 8.59469 3.3534 8.71847 3.38475L10.0418 3.71989C10.2137 3.76343 10.2714 3.97856 10.1443 4.1023L9.16571 5.05537C9.07425 5.14444 9.07428 5.29141 9.16577 5.38045L10.1443 6.33264C10.2714 6.45632 10.2138 6.67145 10.0419 6.71508L8.71835 7.05104C8.59462 7.08244 8.52116 7.20972 8.55586 7.33257L8.92718 8.64721C8.97538 8.81789 8.81789 8.97538 8.64721 8.92718L7.33257 8.55586C7.20972 8.52116 7.08244 8.59462 7.05104 8.71835L6.71508 10.0419C6.67145 10.2138 6.45632 10.2714 6.33264 10.1443L5.38045 9.16577Z" fill="#00D973"/>
<path d="M3.40283 5.67161L4.76389 7.03266L7.03232 4.31055" stroke="white" stroke-width="0.695652" stroke-linecap="round" stroke-linejoin="round"/>
</svg>
